<mxfile host="app.diagrams.net" modified="2023-12-08T18:54:28.542Z" agent="Mozilla/5.0 (Windows NT 10.0; Win64; x64; rv:120.0) Gecko/20100101 Firefox/120.0" version="22.1.7" etag="ik7VD18X7IXVd42OEkUm" type="github">
  <diagram name="Page-1" id="H_1aUF9YoPBZOVjen3y8">
    <mxGraphModel>
      <root>
        <mxCell id="0" />
        <mxCell id="1" parent="0" />
      </root>
    </mxGraphModel>
  </diagram>
</mxfile>
